<?xml version="1.0" encoding="UTF-8"?>
<!DOCTYPE svg PUBLIC "-//W3C//DTD SVG 1.1//EN" "http://www.w3.org/Graphics/SVG/1.1/DTD/svg11.dtd">
<!-- Creator: CorelDRAW 2018 (64-Bit) -->
<svg xmlns="http://www.w3.org/2000/svg" xml:space="preserve" width="36.7456mm" height="36.7849mm" version="1.1" style="shape-rendering:geometricPrecision; text-rendering:geometricPrecision; image-rendering:optimizeQuality; fill-rule:evenodd; clip-rule:evenodd"
viewBox="0 0 95.13 95.23"
 xmlns:xlink="http://www.w3.org/1999/xlink">
 <defs>
  <style type="text/css">
   <![CDATA[
    .fil0 {fill:#CC918F}
   ]]>
  </style>
 </defs>
 <g id="Layer_x0020_1">
  <metadata id="CorelCorpID_0Corel-Layer"/>
  <path class="fil0" d="M60.28 35.92l2.61 -0.23c0.12,1.06 0.41,1.92 0.86,2.6 0.45,0.67 1.16,1.22 2.11,1.64 0.95,0.42 2.03,0.63 3.22,0.63 1.06,0 1.99,-0.16 2.8,-0.47 0.81,-0.32 1.41,-0.75 1.81,-1.3 0.4,-0.55 0.6,-1.15 0.6,-1.8 0,-0.65 -0.19,-1.23 -0.57,-1.72 -0.38,-0.49 -1.01,-0.9 -1.89,-1.24 -0.56,-0.21 -1.81,-0.56 -3.74,-1.02 -1.93,-0.46 -3.28,-0.9 -4.05,-1.31 -1,-0.53 -1.74,-1.18 -2.23,-1.96 -0.49,-0.78 -0.74,-1.65 -0.74,-2.61 0,-1.06 0.3,-2.06 0.9,-2.97 0.6,-0.92 1.48,-1.62 2.63,-2.1 1.15,-0.48 2.44,-0.72 3.85,-0.72 1.55,0 2.93,0.25 4.11,0.75 1.19,0.5 2.1,1.24 2.74,2.21 0.64,0.97 0.98,2.08 1.03,3.31l-2.67 0.21c-0.14,-1.32 -0.63,-2.33 -1.45,-3 -0.83,-0.68 -2.05,-1.02 -3.66,-1.02 -1.68,0 -2.91,0.31 -3.67,0.92 -0.77,0.62 -1.15,1.36 -1.15,2.23 0,0.75 0.27,1.37 0.82,1.86 0.54,0.48 1.93,0.99 4.19,1.49 2.26,0.51 3.81,0.96 4.65,1.34 1.22,0.56 2.12,1.27 2.7,2.13 0.58,0.86 0.87,1.85 0.87,2.97 0,1.12 -0.32,2.16 -0.96,3.15 -0.64,0.99 -1.55,1.75 -2.75,2.3 -1.2,0.55 -2.54,0.82 -4.04,0.82 -1.9,0 -3.48,-0.28 -4.76,-0.83 -1.28,-0.55 -2.29,-1.38 -3.01,-2.5 -0.73,-1.11 -1.11,-2.36 -1.15,-3.77zm-17.47 4.28l4.47 0c1.38,0 2.47,-0.13 3.25,-0.39 0.79,-0.26 1.41,-0.62 1.88,-1.09 0.65,-0.66 1.17,-1.55 1.53,-2.66 0.37,-1.11 0.55,-2.46 0.55,-4.05 0,-2.2 -0.36,-3.89 -1.08,-5.07 -0.72,-1.18 -1.59,-1.97 -2.62,-2.37 -0.74,-0.29 -1.94,-0.43 -3.59,-0.43l-4.4 0 0 16.06zm-2.78 2.46l0 -20.99 7.23 0c1.63,0 2.88,0.1 3.74,0.3 1.2,0.28 2.23,0.78 3.08,1.5 1.11,0.94 1.93,2.13 2.48,3.59 0.55,1.46 0.83,3.12 0.83,4.99 0,1.59 -0.19,3 -0.56,4.24 -0.37,1.23 -0.85,2.25 -1.43,3.06 -0.59,0.81 -1.22,1.44 -1.91,1.9 -0.69,0.46 -1.52,0.82 -2.5,1.05 -0.98,0.24 -2.11,0.36 -3.38,0.36l-7.57 0zm-15.81 -8.62l7.15 0 -2.19 -5.82c-0.66,-1.77 -1.16,-3.23 -1.5,-4.38 -0.29,1.37 -0.67,2.71 -1.16,4.04l-2.3 6.16zm-6.04 8.62l8.05 -20.99 3.05 0 8.54 20.99 -3.16 0 -2.43 -6.36 -8.84 0 -2.28 6.36 -2.95 0zm-12.11 21.59l26.32 0c2.18,4.67 -2.02,4.52 10.43,4.52l0.16 20.71c-0.31,1.4 -1.25,0.62 -2.8,1.71l0 3.89 14.79 0.16c0.16,-9.03 -2.8,-1.56 -2.8,-6.85l0.16 -19.62c12.61,0 8.41,0.47 10.28,-4.52 6.54,-0.31 28.03,0.93 31.92,-0.62l0.62 -3.89 -94.83 -0.16c0,5.45 0.93,4.67 5.76,4.67zm43.91 -54.65l0 -4.67 4.67 -0.31c1.71,-5.92 -4.83,-4.36 -9.65,-4.36 -2.34,0 -4.83,-0.16 -4.67,2.34 0.16,2.8 2.8,2.18 4.98,2.49l0 3.89 -26.94 0.31 0 -4.2c3.89,-0.47 6.54,-0.16 4.2,-4.52 -1.25,-0.16 -15.88,-2.34 -13.7,3.11 0.62,1.71 2.65,1.25 4.83,1.25l0 4.36c-18.22,0.47 -12.77,-8.1 -13.39,45.78l94.67 0 0 -39.24c0.16,-2.18 0.47,-4.05 -0.78,-5.29 0,-0.16 0.62,-0.78 -1.87,-1.25 -0.62,-0.16 -2.65,0 -3.27,0 -2.49,0 -4.98,0 -7.32,0 -0.16,-4.98 -0.16,-3.89 1.71,-4.36 1.09,-0.31 1.56,-0.16 2.65,-0.62 1.4,-3.74 -0.31,-4.05 -4.2,-4.05 -3.11,0 -7.01,-0.31 -9.65,0.47l0 3.74 4.67 0.62 0.16 4.2 -27.09 0.31z"/>
 </g>
</svg>
