<svg width="69" height="65" viewBox="0 0 69 65" fill="none" xmlns="http://www.w3.org/2000/svg">
<path d="M38.9805 57.9893L36.9643 57.315C33.3799 56.1911 30.0195 55.7416 26.6591 55.7416C25.987 55.7416 25.0909 55.7416 24.4188 55.9664C21.0584 56.4159 19.4903 57.7645 19.4903 59.5626C19.4903 61.8103 21.7305 62.9341 26.4351 62.9341C28.4513 62.9341 30.6916 62.4845 32.9318 61.8102C34.5 61.136 36.0682 60.4617 37.4123 59.5626L38.9805 58.214V57.9893ZM42.1169 53.9435C43.237 51.9206 44.3571 48.5491 45.9253 43.3796C47.0455 39.7833 47.7175 37.0862 48.3896 35.0633C49.2857 32.1413 50.4058 29.4442 51.75 26.747C54.4383 20.9031 57.7987 16.8573 61.6071 14.8345C62.5032 14.3849 63.6234 13.9354 64.7435 13.9354C67.4318 13.9354 68.776 15.9583 68.776 20.004C68.776 21.5774 68.3279 23.825 67.6558 26.5222C66.5357 30.3432 65.8636 32.3661 65.4156 32.8156C65.1916 33.0404 64.9675 33.0404 64.7435 33.0404L63.1753 33.4899H62.7273L62.5032 33.2652V32.8156L64.7435 27.1965C65.4156 25.6232 65.8636 24.0498 66.3117 22.2517C66.7597 20.6783 66.9838 19.5545 66.9838 18.4307C66.9838 16.4078 66.3117 15.284 64.9675 15.5088C64.2955 15.5088 63.6234 15.7335 63.1753 16.183C60.9351 17.7564 58.9188 20.004 57.3506 23.1507C56.4545 24.9489 55.5584 26.747 54.8864 28.7699L52.1981 36.6366L50.4058 42.4805C49.5097 45.4024 48.3896 48.0996 47.4935 50.572C46.8214 52.3701 45.9253 53.9435 44.8052 55.2921L43.6851 56.6407L46.3734 57.5397C48.8377 58.4388 50.6299 59.1131 51.75 59.3378C52.8701 59.5626 54.2143 60.0121 55.5584 60.2369L57.7987 60.6864L58.4708 60.9112L58.2467 61.5855L56.9026 63.6084L56.4545 64.0579L56.2305 64.2827H55.7825L53.9903 63.8331C51.974 63.3836 49.9578 62.7093 48.1656 62.035C46.5974 61.5855 45.0292 60.9112 43.237 60.0121L41.6688 59.3378L40.5487 60.2369C38.7565 61.5855 36.9643 62.7093 34.9481 63.6084C32.4838 64.5074 30.0195 64.957 27.3312 64.957C25.3149 64.957 23.2987 64.5074 21.5065 63.8331C19.2662 62.9341 18.1461 61.3607 18.1461 59.5626C18.1461 56.8654 19.7143 55.0673 22.8506 54.1683C24.4188 53.7187 26.211 53.2692 28.0032 53.2692C31.1396 53.2692 34.9481 53.9435 39.4286 55.2921L41.6688 55.9664L42.5649 54.393L42.1169 53.9435Z" fill="#CC918F"/>
<path d="M20.8344 43.8291L18.8182 43.1548C15.2338 42.031 11.6494 41.5814 8.51299 41.5814C7.84091 41.5814 6.94481 41.5814 6.27273 41.8062C2.91234 42.2557 1.34416 43.6043 1.34416 45.4024C1.34416 47.6501 3.58442 48.7739 8.28896 48.7739C10.5292 48.7739 12.5455 48.3244 14.7857 47.6501C16.3539 46.9758 17.9221 46.3015 19.2662 45.4024L20.8344 44.0539V43.8291ZM23.9708 39.7833C25.0909 37.7604 26.211 34.389 27.7792 29.4442C28.8994 25.8479 29.5714 23.1507 30.2435 21.1279C31.1396 18.2059 32.2597 15.5088 33.6039 12.8116C36.2922 6.9677 39.6526 2.92194 43.461 0.899058C44.3571 0.449529 45.4773 0 46.5974 0C49.2857 0 50.6299 2.02288 50.6299 6.06864C50.6299 7.64199 50.1818 9.88964 49.5097 12.5868C48.3896 16.4078 47.7175 18.4307 47.2695 18.8802C47.0455 19.105 46.8214 19.105 46.5974 19.105L45.0292 19.5545H44.5812L44.3571 19.3298V18.8802L46.5974 13.2611C47.2695 11.6878 47.7175 10.1144 48.1656 8.31629C48.6136 6.74294 48.8377 5.61911 48.8377 4.49529C48.8377 2.47241 48.1656 1.34859 46.8214 1.57335C46.1493 1.57335 45.4773 1.79812 45.0292 2.24765C42.789 3.821 40.7727 6.06864 39.2045 9.21535C38.3084 11.0135 37.4123 12.8116 36.7403 14.8345L34.0519 22.7012L32.2597 28.5451C31.3636 31.467 30.2435 34.1642 29.3474 36.6366C28.6753 38.4347 27.7792 40.0081 26.6591 41.3567L25.539 42.7053L28.2273 43.6043C30.6916 44.5034 32.4838 45.1777 33.6039 45.4024C34.724 45.6272 36.0682 46.0767 37.4123 46.3015L39.6526 46.751L40.3247 46.9758L40.1006 47.6501L38.7565 49.673L38.3084 50.1225L38.0844 50.3473H37.6364L35.8442 49.8977C33.8279 49.4482 31.8117 48.7739 30.0195 48.0996C28.4513 47.6501 26.8831 46.9758 25.0909 46.0767L23.5227 45.4024L22.4026 46.3015C20.6104 47.6501 18.8182 48.7739 16.8019 49.673C14.3377 50.572 11.8734 51.0215 9.18507 51.0215C6.94481 51.0215 5.1526 50.572 3.36039 49.8977C1.12013 48.9987 0 47.4253 0 45.6272C0 42.93 1.56818 41.1319 4.70455 40.2329C6.27273 39.7833 8.06493 39.3338 9.85714 39.3338C12.9935 39.3338 16.8019 40.0081 21.2825 41.3567L23.5227 42.031L24.4188 40.4576L23.9708 39.7833Z" fill="#CC918F"/>
</svg>
