<?xml version="1.0" encoding="UTF-8"?>
<!DOCTYPE svg PUBLIC "-//W3C//DTD SVG 1.1//EN" "http://www.w3.org/Graphics/SVG/1.1/DTD/svg11.dtd">
<!-- Creator: CorelDRAW 2018 (64-Bit) -->
<svg xmlns="http://www.w3.org/2000/svg" xml:space="preserve" width="32.9092mm" height="28.1471mm" version="1.1" style="shape-rendering:geometricPrecision; text-rendering:geometricPrecision; image-rendering:optimizeQuality; fill-rule:evenodd; clip-rule:evenodd"
viewBox="0 0 91.2 78"
 xmlns:xlink="http://www.w3.org/1999/xlink">
 <defs>
  <style type="text/css">
   <![CDATA[
    .str0 {stroke:#331703;stroke-width:0.21;stroke-linecap:round;stroke-linejoin:round;stroke-miterlimit:22.9256}
    .fil2 {fill:none}
    .fil1 {fill:#331703}
    .fil0 {fill:#CC918F}
   ]]>
  </style>
 </defs>
 <g id="Layer_x0020_1">
  <metadata id="CorelCorpID_0Corel-Layer"/>
  <g id="_2339991624400">
   <polygon class="fil0" points="-0,0 91.2,0 91.2,78 -0,78 "/>
   <path class="fil1" d="M58.01 65.79c0.28,0.2 1.04,1.42 1.25,1.73 0.76,1.12 0.7,1.42 1.46,1.37l0 -3.84c-0.07,-0.34 0.1,-0.13 -0.21,-0.27 -0.35,0.11 -0.28,-0.29 -0.28,0.5l0 2.65c-0.35,-0.25 -1.46,-2.07 -1.81,-2.63 -0.31,-0.47 -0.24,-0.56 -0.94,-0.5 0,0.79 -0.17,3.62 0.1,4.12 0.63,-0.05 0.31,0.16 0.42,-0.34l0 -2.34 0 -0.45zm-21.68 2.59c-0.03,-1.12 0.28,-4.2 -0.45,-3.53 -0.28,0.25 -0.14,3.48 -0.1,4.07l2.19 0c0.56,-0.09 0.21,0.16 0.38,-0.22 -0.21,-0.56 -0.8,-0.09 -2.02,-0.31zm10.53 0.04c0.03,0.02 0.1,0 0.1,0.04 0.03,0.07 0.83,0.56 1.67,0.52 0.63,-0.02 1.18,-0.27 1.56,-0.65l0.03 -1.53c-0.28,0 -0.56,0 -0.87,0 -0.7,0 -0.66,0 -0.87,0.18 0.17,0.49 -0.35,0.2 0.52,0.34 0.07,0 0.49,-0.02 0.66,-0.02 0.1,1.01 -0.42,1.35 -1.53,1.17 -1.6,-0.25 -1.6,-2.92 -0.07,-3.26 1.49,-0.29 1.15,0.81 1.91,0.76 0.31,-0.43 -0.21,-1.44 -2.19,-1.21 -2.43,1.17 -1.04,3.24 -0.94,3.66zm-6.01 -1.08c-0.45,-2.61 2.33,-2.74 2.74,-1.06 0.59,2.52 -2.4,2.99 -2.74,1.06zm1.08 -2.61c-2.71,0.47 -2.02,4.83 0.8,4.2 2.33,-0.52 1.81,-4.68 -0.8,-4.2zm-11.85 2.85c0.24,0.81 0.45,1.24 1.39,1.37 2.12,0.31 2.71,-1.82 0.87,-2.36 -0.83,-0.25 -1.63,-0.11 -1.46,-1.12 0.28,-0.2 0.63,-0.36 1.15,-0.27 0.52,0.11 0.56,0.34 0.8,0.76l0.42 -0.02c0.21,-1.39 -2.26,-1.64 -2.81,-0.63 -0.83,1.57 1.63,1.64 2.4,2.11 0.21,1.48 -1.95,1.42 -2.15,0.11l-0.59 0.04zm23.73 -2.23l0.63 1.84 -1.35 0.02 0.73 -1.87zm-1.67 2.59l-0.21 0.97c0.56,0 0.49,0.11 0.7,-0.41 0.14,-0.29 0.21,-0.58 0.24,-0.85l1.81 0.02 0.45 1.24 0.63 -0.02 -1.63 -4.14 -0.59 0.02c-0.63,0.83 -0.7,2.5 -1.39,3.17zm3.86 -11.87l-0.03 4.68 0.83 0 0 -3.42c0.42,0.18 3.16,2.97 3.41,3.35 0.35,0.13 0.45,0.04 0.7,0.04l0.07 -3.06 -0.03 -1.75 -0.76 -0.02 -0.03 3.44c-0.49,-0.43 -0.94,-0.94 -1.46,-1.42 -0.49,-0.49 -1.15,-0.92 -1.46,-1.55 -0.21,-0.07 -0.03,0.02 -0.28,-0.16 -0.14,-0.11 -0.1,-0.16 -0.35,-0.27 -0.35,-0.13 -0.38,0.02 -0.59,0.13zm-19.42 4.32c0.03,-0.49 0.59,-1.24 0.87,-1.66 0.17,-0.31 0.28,-0.49 0.45,-0.79 0.24,-0.4 0.24,-0.58 0.62,-0.83l0.94 1.73c-1.15,0 -1.46,-0.25 -1.81,0.72l1.81 -0.02c0.59,0.09 0.17,-0.07 0.49,0.2 0.21,0.13 0.31,0.49 0.49,0.74 0.31,0.43 0.52,0.22 1.15,0.34 -0.31,-0.85 -1.39,-2.16 -1.46,-2.79 -0.76,-0.56 -1.08,-2.16 -1.67,-2.16 -0.56,0.16 -1.36,1.84 -1.67,2.34 -0.49,0.79 -1.11,1.75 -1.46,2.5 0.97,0.11 0.7,0.09 1.25,-0.31zm-13.66 0.31l0.83 0.05 0.87 -3.28c0.56,0.79 1.08,3.06 1.84,3.33 0.76,-0.31 1.22,-2.52 1.77,-3.33l0.94 3.26 0.8 0 -1.01 -3.75c-0.83,-3.21 -1.63,1.46 -2.5,2.5 -1.95,-3.62 -1.56,-6.48 -3.54,1.24zm46.08 0c-0.07,-0.56 0.56,-2.74 0.87,-3.19 0.63,1.1 1.18,3.28 1.7,3.31 0.69,0.02 1.18,-2.47 1.84,-3.31 0.21,0.43 0.21,0.49 0.17,0.92 0.49,0.54 0.45,1.66 0.8,2.29l0.8 0.02c-0.45,-1.26 -0.8,-3.03 -1.18,-4.29 -0.17,-0.61 0,-0.31 -0.35,-0.56 -0.59,-0.18 -0.7,0.63 -1.11,1.62 -0.31,0.65 -0.56,1.33 -0.87,1.98 -0.97,-1.24 -0.94,-3.62 -2.26,-3.6l-1.18 4.2c-0.1,0.49 -0.07,0.49 0.03,0.65l0.73 -0.05zm-37.6 0.09l0 -3.98c0.66,-0.09 1.36,-0.05 2.05,-0.05 0.76,0 1.29,-0.02 1.39,0.7 0.28,1.57 -1.77,0.99 -2.85,1.17l0 0.72c2.01,0.36 4.24,0.04 3.61,-2.36 -0.38,-0.92 -0.8,-1.06 -2.05,-1.06 -0.76,-0.02 -2.29,-0.11 -2.99,0.04l0 4.7 0.83 0.11zm31.1 -0.07c0.07,-0.29 1.77,-3.19 2.09,-3.57 0.38,0.34 0.8,1.26 1.04,1.66l-1.42 0.05 -0.38 0.65 2.22 0.02c0.31,0.4 0.59,0.83 0.66,1.21l1.08 0 -2.26 -3.8c-1.04,-1.75 -0.97,-1.37 -2.5,1.24 -0.42,0.65 -1.29,1.91 -1.53,2.54l1.01 0zm-12.34 -1.35l0 1.33 0.83 0.07c0,-1.89 -0.21,-1.8 1.7,-3.84 0.38,-0.4 0.52,-0.67 0.8,-0.94l-1.08 -0.07c-0.21,0.4 -0.56,0.74 -0.87,1.1 -0.17,0.22 -0.28,0.31 -0.45,0.52 -0.1,0.13 -0.1,0.16 -0.21,0.29 -0.21,0.22 -0.07,0.09 -0.28,0.25l-1.84 -2.14 -1.11 0c0.42,0.92 2.5,2.38 2.5,3.44zm-31.69 -2.5c0.9,-0.31 2.54,-0.16 2.95,0.54 0.49,0.94 0.1,2.09 -0.7,2.36 -3.16,1.1 -4.34,-2.18 -2.26,-2.9zm-1.81 1.89c0.24,0.9 0.7,1.64 1.63,1.89 0.94,0.25 2.5,0.16 3.23,-0.34 0.59,-0.43 1.11,-1.42 0.9,-2.56 -0.21,-1.15 -0.8,-1.42 -1.74,-1.8 -2.47,-0.13 -4.2,0.09 -4.03,2.81zm25.47 2.02l0.8 -0.04 0 -3.42c1.08,0.45 3.06,3.48 3.93,3.44 0.42,-0.45 0.24,-1.46 0.24,-2.25 0,-0.76 0.07,-1.91 -0.03,-2.61l-0.69 -0.02 -0.07 3.44c-1.04,-0.88 -2.75,-2.97 -3.86,-3.55 -0.49,0.61 -0.31,1.42 -0.31,2.36 0,0.9 0,1.78 0,2.65zm33.53 -0.04l4.41 0.04 -0.1 -0.88 -3.44 -0.02 0 -3.13 3.47 -0.02 0 -0.81 -4.34 0 0 4.81zm-64.22 -1.01c0.03,0.02 0.07,0.02 0.07,0.07l0.24 0.27c1.01,0.92 2.99,0.76 4.38,0.63 -0.21,-0.54 0.14,-0.45 -0.24,-0.76 -1.6,-0.22 -4,0.52 -3.93,-1.66 0.07,-2.34 2.99,-1.12 4.1,-1.6l0 -0.76 -2.99 0.02c-0.83,0.18 -1.39,0.63 -1.7,1.24 -0.56,1.08 -0.07,1.71 0.07,2.56zm68.35 -1.12l0 -0.63c-0.7,-0.11 -2.02,-0.2 -2.64,0.04l0 0.63 2.64 -0.04z"/>
   <line class="fil2 str0" x1="65.46" y1="66.83" x2="79.13" y2= "66.83" />
   <line class="fil2 str0" x1="13.38" y1="66.83" x2="27.05" y2= "66.83" />
   <path class="fil1" d="M44.22 20.06c-0.03,0.02 -3.02,1.64 -3.41,1.84 -1.32,0.76 -5.8,3.89 -6.95,5.17 -0.8,0.88 -2.61,2.45 -3.41,3.46l-1.25 1.44c-0.42,0.47 -3.27,4.09 -3.51,4.72 -0.42,0.94 2.36,5.17 2.43,5.46 0.17,0.13 0.07,0.05 0.21,0.23l1.46 1.75c0.52,0.63 1.11,1.42 1.84,1.78 0,-4.53 0.38,-7.74 2.29,-12.05 1.67,-3.82 3.54,-6.14 6.12,-8.84 3.41,-3.55 4.83,-3.98 8.31,-6.56 -1.15,0.18 -2.95,1.19 -4.14,1.6z"/>
   <path class="fil1" d="M36.02 47.49c1.67,2.61 4.24,2.99 4.66,3.28 2.47,0.47 3.75,0.58 6.36,0.4 1.88,-0.31 2.57,-0.38 4.41,-0.85 0.59,-0.16 1.08,-0.22 1.46,-0.56 -4.73,0.02 -10.77,-0.34 -11.29,-6.32 -0.54,-6.57 5.05,-14.2 9,-19 3.48,-4.16 6.53,-7.31 10.88,-10.43 0.45,-0.31 0.63,-0.36 0.94,-0.79 -0.97,0.25 -3.41,1.73 -4.27,2.23 -1.39,0.76 -2.68,1.57 -3.96,2.41 -3.68,2.38 -4.48,3.33 -7.3,5.46l-1.7 1.48c-0.52,0.61 -1.04,1.01 -1.6,1.57 -1.04,1.03 -2.05,2.11 -3.02,3.35 -0.9,1.12 -1.81,2.41 -2.61,3.75 -2.33,3.77 -4.63,9.88 -1.95,14.01z"/>
   <path class="fil1" d="M59.54 19.36c0.14,0.09 -0.03,-0.09 0.17,0.13l1.18 1.75c1.42,2.5 2.19,4.97 2.36,8 0.24,5.62 -2.14,11.23 -6.67,14.68 -1.15,0.88 -2.61,1.75 -4.45,2.16 -2.54,0.58 -3.65,0.09 -5.98,-0.09 1.67,1.37 6.6,2.07 9.35,1.48 1.53,-0.34 2.81,-0.97 3.93,-1.73l2.26 -2c4.68,-4.87 5.68,-12.41 4.41,-18.8 -0.76,-2.5 -1.46,-4.38 -2.88,-6.52 -0.38,-0.58 -0.83,-1.35 -1.36,-1.69l-2.57 2.02c0.17,0.34 0.14,0.22 0.24,0.58z"/>
   <path class="fil1" d="M43 9.09c-4.9,0.88 -9.03,2.59 -12.47,6.07 -3.3,3.39 -5.32,7.78 -5.98,12.59 -0.1,1.44 -0.14,2.59 -0.07,4.05l0.1 0.83c0.38,-0.25 2.02,-2.45 2.36,-2.9 0.87,-1.08 1.74,-1.91 2.57,-2.81l1.32 -1.28c1.49,-1.51 2.54,-2.38 4.45,-3.64 0.76,-0.52 3.68,-2.34 4.73,-2.38 -0.03,-0.04 -0.07,-0.04 -0.1,-0.07 -1.94,-0.78 -8.04,2.39 -10.22,2.79 1.91,-4.81 8.06,-9.26 13.55,-9.78 2.75,-0.52 5.87,0 8.3,0.88 1.56,0.54 2.71,1.51 3.3,1.19l2.92 -1.75c-4.07,-3.01 -8.58,-4.2 -14.77,-3.78z"/>
  </g>
 </g>
</svg>
