<svg width="23" height="15" viewBox="0 0 23 15" fill="none" xmlns="http://www.w3.org/2000/svg">
<path fill-rule="evenodd" clip-rule="evenodd" d="M0 13.1236L7.83218 6.79924C7.75303 6.68051 0.755911 1.23083 0 0.914216V13.1236ZM11.212 7.51557L21.2328 0H1.2704C1.46829 0.316612 5.52487 3.2611 6.16206 3.73602L9.89808 6.55782C10.3374 6.87443 10.8123 7.27416 11.212 7.51161V7.51557ZM14.671 6.79924L16.6182 8.42979C17.3741 9.02739 22.0243 12.8821 22.5032 13.1236V0.953793C21.8264 1.2704 16.7369 5.16869 15.6248 6.00375L14.671 6.79924ZM8.98386 7.67388C7.15543 9.02739 4.21094 11.6909 2.10547 13.2423L1.42871 13.8399C1.23083 14.0378 1.34956 13.8795 1.19125 14.1169C7.67388 14.1169 14.9085 14.2357 21.3119 14.0774C20.0811 12.9257 18.5693 11.8096 17.3345 10.7767C16.6182 10.2186 15.981 9.70415 15.3082 9.14612L13.361 7.67388C12.7634 8.19233 11.9283 8.7464 11.3347 9.26485C10.6184 8.86909 9.58542 7.87176 8.98782 7.67388H8.98386Z" fill="#CC918F"/>
</svg>
