<?xml version="1.0" encoding="UTF-8"?>
<!DOCTYPE svg PUBLIC "-//W3C//DTD SVG 1.1//EN" "http://www.w3.org/Graphics/SVG/1.1/DTD/svg11.dtd">
<!-- Creator: CorelDRAW 2018 (64-Bit) -->
<svg xmlns="http://www.w3.org/2000/svg" xml:space="preserve" width="33.782mm" height="36.3825mm" version="1.1" style="shape-rendering:geometricPrecision; text-rendering:geometricPrecision; image-rendering:optimizeQuality; fill-rule:evenodd; clip-rule:evenodd"
viewBox="0 0 87.66 94.41"
 xmlns:xlink="http://www.w3.org/1999/xlink">
 <defs>
  <style type="text/css">
   <![CDATA[
    .fil1 {fill:#331703}
    .fil2 {fill:#331703}
    .fil0 {fill:#CC918F}
   ]]>
  </style>
 </defs>
 <g id="Layer_x0020_1">
  <metadata id="CorelCorpID_0Corel-Layer"/>
  <g id="_2340436811728">
   <path class="fil0" d="M39.19 18.53l1.11 -0.1c0.05,0.45 0.17,0.81 0.37,1.1 0.19,0.29 0.49,0.52 0.89,0.7 0.4,0.18 0.86,0.27 1.36,0.27 0.45,0 0.84,-0.07 1.19,-0.2 0.34,-0.13 0.6,-0.32 0.77,-0.55 0.17,-0.23 0.25,-0.49 0.25,-0.76 0,-0.28 -0.08,-0.52 -0.24,-0.73 -0.16,-0.21 -0.43,-0.38 -0.8,-0.52 -0.24,-0.09 -0.77,-0.24 -1.58,-0.43 -0.82,-0.2 -1.39,-0.38 -1.72,-0.55 -0.42,-0.22 -0.74,-0.5 -0.95,-0.83 -0.21,-0.33 -0.31,-0.7 -0.31,-1.11 0,-0.45 0.13,-0.87 0.38,-1.26 0.25,-0.39 0.63,-0.69 1.12,-0.89 0.49,-0.2 1.03,-0.3 1.63,-0.3 0.66,0 1.24,0.11 1.74,0.32 0.5,0.21 0.89,0.52 1.16,0.94 0.27,0.41 0.42,0.88 0.44,1.4l-1.13 0.09c-0.06,-0.56 -0.26,-0.99 -0.61,-1.27 -0.35,-0.29 -0.87,-0.43 -1.55,-0.43 -0.71,0 -1.23,0.13 -1.56,0.39 -0.32,0.26 -0.49,0.58 -0.49,0.94 0,0.32 0.12,0.58 0.35,0.79 0.23,0.2 0.82,0.42 1.77,0.63 0.96,0.22 1.61,0.41 1.97,0.57 0.52,0.24 0.9,0.54 1.14,0.9 0.25,0.36 0.37,0.78 0.37,1.26 0,0.47 -0.13,0.92 -0.41,1.34 -0.27,0.42 -0.66,0.74 -1.17,0.98 -0.51,0.23 -1.08,0.35 -1.71,0.35 -0.8,0 -1.48,-0.12 -2.02,-0.35 -0.54,-0.23 -0.97,-0.59 -1.28,-1.06 -0.31,-0.47 -0.47,-1 -0.49,-1.6zm-7.4 1.81l1.9 0c0.59,0 1.05,-0.05 1.38,-0.16 0.33,-0.11 0.6,-0.26 0.8,-0.46 0.28,-0.28 0.49,-0.66 0.65,-1.13 0.16,-0.47 0.23,-1.04 0.23,-1.72 0,-0.93 -0.15,-1.65 -0.46,-2.15 -0.3,-0.5 -0.67,-0.84 -1.11,-1.01 -0.31,-0.12 -0.82,-0.18 -1.52,-0.18l-1.86 0 0 6.81zm-1.18 1.04l0 -8.89 3.06 0c0.69,0 1.22,0.04 1.58,0.13 0.51,0.12 0.94,0.33 1.3,0.64 0.47,0.4 0.82,0.9 1.05,1.52 0.23,0.62 0.35,1.32 0.35,2.12 0,0.67 -0.08,1.27 -0.24,1.79 -0.16,0.52 -0.36,0.95 -0.61,1.3 -0.25,0.34 -0.52,0.61 -0.81,0.81 -0.29,0.2 -0.65,0.35 -1.06,0.45 -0.42,0.1 -0.89,0.15 -1.43,0.15l-3.21 0zm-6.7 -3.65l3.03 0 -0.93 -2.47c-0.28,-0.75 -0.49,-1.37 -0.64,-1.86 -0.12,0.58 -0.29,1.15 -0.49,1.71l-0.97 2.61zm-2.56 3.65l3.41 -8.89 1.29 0 3.62 8.89 -1.34 0 -1.03 -2.7 -3.74 0 -0.96 2.7 -1.25 0zm-21.34 -21.39l57.37 0 0 79.23 -57.37 0 0 -79.23zm1.32 1.32l54.73 0 0 76.59 -54.73 0 0 -76.59zm2.24 74.83l50.41 -0.26 0 -72.19 -50.28 -0.13 -0.13 72.58zm15.18 -59.26l0.13 10.56 31.15 0 0.13 -20.06 -31.41 0 0 9.5zm-11.35 33.92l22.7 0 0 -19.53 -22.7 0.13 0 19.4zm20.06 17.29l0.13 -13.46 22.57 0 0 17.68 -22.7 0 0 -4.22zm5.75 -35.03l14.42 0c0.61,0 1.11,0.5 1.11,1.11l0 0c0,0.61 -0.5,1.11 -1.11,1.11l-14.42 0c-0.61,0 -1.11,-0.5 -1.11,-1.11l0 -0c0,-0.61 0.5,-1.11 1.11,-1.11zm0 6.44l14.42 0c0.61,0 1.11,0.5 1.11,1.11l0 0c0,0.61 -0.5,1.11 -1.11,1.11l-14.42 0c-0.61,0 -1.11,-0.5 -1.11,-1.11l0 0c0,-0.61 0.5,-1.11 1.11,-1.11zm0 6.44l14.42 0c0.61,0 1.11,0.5 1.11,1.11l0 0c0,0.61 -0.5,1.11 -1.11,1.11l-14.42 0c-0.61,0 -1.11,-0.5 -1.11,-1.11l0 -0c0,-0.61 0.5,-1.11 1.11,-1.11zm-24.55 8.68l14.42 0c0.61,0 1.11,0.5 1.11,1.11l0 0c0,0.61 -0.5,1.11 -1.11,1.11l-14.42 0c-0.61,0 -1.11,-0.5 -1.11,-1.11l0 -0c0,-0.61 0.5,-1.11 1.11,-1.11zm0 6.44l14.42 0c0.61,0 1.11,0.5 1.11,1.11l0 0c0,0.61 -0.5,1.11 -1.11,1.11l-14.42 0c-0.61,0 -1.11,-0.5 -1.11,-1.11l0 -0c0,-0.61 0.5,-1.11 1.11,-1.11zm0 6.44l14.42 0c0.61,0 1.11,0.5 1.11,1.11l0 0c0,0.61 -0.5,1.11 -1.11,1.11l-14.42 0c-0.61,0 -1.11,-0.5 -1.11,-1.11l0 -0c0,-0.61 0.5,-1.11 1.11,-1.11zm0 -57.68l7.8 0c0.61,0 1.11,0.5 1.11,1.11l0 0c0,0.61 -0.5,1.11 -1.11,1.11l-7.8 0c-0.61,0 -1.11,-0.5 -1.11,-1.11l0 -0c0,-0.61 0.5,-1.11 1.11,-1.11zm0 6.44l7.8 0c0.61,0 1.11,0.5 1.11,1.11l0 0c0,0.61 -0.5,1.11 -1.11,1.11l-7.8 0c-0.61,0 -1.11,-0.5 -1.11,-1.11l0 -0c0,-0.61 0.5,-1.11 1.11,-1.11zm0 6.44l7.8 0c0.61,0 1.11,0.5 1.11,1.11l0 0c0,0.61 -0.5,1.11 -1.11,1.11l-7.8 0c-0.61,0 -1.11,-0.5 -1.11,-1.11l0 0c0,-0.61 0.5,-1.11 1.11,-1.11z"/>
   <g>
    <rect class="fil1" transform="matrix(0.849673 0.238922 -0 0.799402 68.6346 32.5857)" width="22.39" height="70.64"/>
    <rect class="fil2" transform="matrix(-0.849673 0.238922 -0 0.799402 68.6346 32.5857)" width="22.39" height="70.64"/>
    <rect class="fil2" transform="matrix(0.849673 0.238922 -0 0.799402 30.5941 32.5857)" width="22.39" height="70.64"/>
    <path class="fil0" d="M68.2 33.65l-18.14 4.79 0 54.91 18.14 -4.79 0 -54.91zm0.44 -1.06l-19.02 5.02 0 56.8 19.02 -5.02 0 -56.8z"/>
    <g>
     <path class="fil0" d="M43.59 49.3l0.37 0.03c0.02,0.33 0.06,0.6 0.12,0.82 0.06,0.22 0.16,0.41 0.3,0.58 0.13,0.16 0.28,0.27 0.45,0.31 0.15,0.04 0.28,0.03 0.39,-0.04 0.11,-0.07 0.2,-0.18 0.25,-0.33 0.06,-0.15 0.08,-0.33 0.08,-0.52 0,-0.2 -0.03,-0.38 -0.08,-0.54 -0.05,-0.16 -0.14,-0.31 -0.27,-0.45 -0.08,-0.09 -0.25,-0.24 -0.52,-0.45 -0.27,-0.21 -0.46,-0.39 -0.57,-0.55 -0.14,-0.2 -0.24,-0.42 -0.31,-0.68 -0.07,-0.25 -0.1,-0.53 -0.1,-0.82 0,-0.32 0.04,-0.61 0.13,-0.87 0.08,-0.26 0.21,-0.44 0.37,-0.54 0.16,-0.1 0.34,-0.13 0.54,-0.08 0.22,0.06 0.41,0.18 0.58,0.38 0.17,0.2 0.3,0.45 0.39,0.77 0.09,0.32 0.14,0.67 0.14,1.04l-0.37 -0.04c-0.02,-0.41 -0.09,-0.73 -0.2,-0.97 -0.12,-0.24 -0.29,-0.38 -0.51,-0.44 -0.24,-0.06 -0.41,-0.01 -0.52,0.14 -0.11,0.16 -0.16,0.37 -0.16,0.63 0,0.23 0.04,0.43 0.11,0.6 0.08,0.17 0.27,0.37 0.59,0.61 0.32,0.24 0.53,0.43 0.65,0.58 0.17,0.22 0.3,0.46 0.38,0.75 0.08,0.28 0.12,0.59 0.12,0.94 0,0.34 -0.04,0.65 -0.13,0.92 -0.09,0.28 -0.22,0.48 -0.39,0.6 -0.17,0.12 -0.36,0.16 -0.57,0.1 -0.27,-0.07 -0.49,-0.21 -0.67,-0.43 -0.18,-0.22 -0.32,-0.5 -0.42,-0.87 -0.1,-0.36 -0.16,-0.76 -0.16,-1.19zm-2.45 0.65l0.63 0.17c0.19,0.05 0.35,0.05 0.46,0 0.11,-0.05 0.2,-0.14 0.26,-0.26 0.09,-0.18 0.16,-0.43 0.22,-0.75 0.05,-0.32 0.08,-0.73 0.08,-1.21 0,-0.67 -0.05,-1.19 -0.15,-1.58 -0.1,-0.39 -0.22,-0.66 -0.37,-0.82 -0.1,-0.11 -0.27,-0.2 -0.5,-0.26l-0.62 -0.16 0 4.88zm-0.39 0.64l0 -6.38 1.02 0.27c0.23,0.06 0.4,0.14 0.52,0.23 0.17,0.13 0.31,0.32 0.43,0.57 0.16,0.33 0.27,0.72 0.35,1.18 0.08,0.46 0.12,0.98 0.12,1.55 0,0.48 -0.03,0.91 -0.08,1.27 -0.05,0.36 -0.12,0.65 -0.2,0.88 -0.08,0.22 -0.17,0.39 -0.27,0.51 -0.1,0.12 -0.21,0.19 -0.35,0.23 -0.14,0.04 -0.3,0.03 -0.47,-0.02l-1.06 -0.28zm-2.22 -3.2l1 0.27 -0.31 -1.85c-0.09,-0.56 -0.16,-1.02 -0.21,-1.39 -0.04,0.4 -0.09,0.8 -0.16,1.18l-0.32 1.79zm-0.85 2.39l1.13 -6.08 0.43 0.11 1.2 6.69 -0.44 -0.12 -0.34 -2.02 -1.24 -0.33 -0.32 1.85 -0.41 -0.11zm-7.08 -17.2l19.02 5.02 0 56.8 -19.02 -5.02 0 -56.8zm0.44 1.06l18.14 4.79 0 54.91 -18.14 -4.79 0 -54.91zm0.74 53.84l16.71 4.22 0 -51.75 -16.67 -4.5 -0.04 52.03zm5.03 -41.15l0.04 7.58 10.33 2.73 0.04 -14.37 -10.41 -2.75 0 6.81zm-3.76 23.32l7.53 1.99 0 -14 -7.53 -1.89 0 13.91zm6.65 14.15l0.04 -9.64 7.48 1.98 0 12.68 -7.53 -1.99 0 -3.03zm1.91 -24.61l4.78 1.26c0.2,0.05 0.37,0.46 0.37,0.89l0 0c0,0.44 -0.17,0.75 -0.37,0.7l-4.78 -1.26c-0.2,-0.05 -0.37,-0.46 -0.37,-0.89l0 0c0,-0.44 0.17,-0.75 0.37,-0.7zm0 4.61l4.78 1.26c0.2,0.05 0.37,0.46 0.37,0.89l0 0c0,0.44 -0.17,0.75 -0.37,0.7l-4.78 -1.26c-0.2,-0.05 -0.37,-0.46 -0.37,-0.89l0 0c0,-0.44 0.17,-0.75 0.37,-0.7zm0 4.61l4.78 1.26c0.2,0.05 0.37,0.46 0.37,0.89l0 0c0,0.44 -0.17,0.75 -0.37,0.7l-4.78 -1.26c-0.2,-0.05 -0.37,-0.46 -0.37,-0.89l0 -0c0,-0.44 0.17,-0.75 0.37,-0.7zm-8.14 4.07l4.78 1.26c0.2,0.05 0.37,0.46 0.37,0.89l0 0c0,0.44 -0.17,0.75 -0.37,0.7l-4.78 -1.26c-0.2,-0.05 -0.37,-0.46 -0.37,-0.89l0 -0c0,-0.44 0.17,-0.75 0.37,-0.7zm0 4.61l4.78 1.26c0.2,0.05 0.37,0.45 0.37,0.89l0 0c0,0.44 -0.17,0.75 -0.37,0.7l-4.78 -1.26c-0.2,-0.05 -0.37,-0.46 -0.37,-0.89l0 -0c0,-0.44 0.17,-0.75 0.37,-0.7zm0 4.61l4.78 1.26c0.2,0.05 0.37,0.46 0.37,0.89l0 0c0,0.44 -0.17,0.75 -0.37,0.7l-4.78 -1.26c-0.2,-0.05 -0.37,-0.46 -0.37,-0.89l0 -0c0,-0.44 0.17,-0.75 0.37,-0.7zm0 -41.35l2.59 0.68c0.2,0.05 0.37,0.45 0.37,0.89l0 0c0,0.44 -0.17,0.75 -0.37,0.7l-2.59 -0.68c-0.2,-0.05 -0.37,-0.46 -0.37,-0.89l0 -0c0,-0.44 0.17,-0.75 0.37,-0.7zm0 4.61l2.59 0.68c0.2,0.05 0.37,0.46 0.37,0.89l0 0c0,0.44 -0.17,0.75 -0.37,0.7l-2.59 -0.68c-0.2,-0.05 -0.37,-0.46 -0.37,-0.89l0 -0c0,-0.44 0.17,-0.75 0.37,-0.7zm0 4.61l2.59 0.68c0.2,0.05 0.37,0.45 0.37,0.89l0 0c0,0.44 -0.17,0.75 -0.37,0.7l-2.59 -0.68c-0.2,-0.05 -0.37,-0.46 -0.37,-0.89l0 0c0,-0.44 0.17,-0.75 0.37,-0.7z"/>
     <polygon class="fil0" points="67.45,87.49 50.74,91.71 50.74,39.96 67.41,35.46 "/>
     <path class="fil0" d="M81.63 49.3l0.37 0.03c0.02,0.33 0.06,0.6 0.12,0.82 0.06,0.22 0.16,0.41 0.3,0.58 0.13,0.16 0.28,0.27 0.45,0.31 0.15,0.04 0.28,0.03 0.39,-0.04 0.11,-0.07 0.2,-0.18 0.25,-0.33 0.06,-0.15 0.08,-0.33 0.08,-0.52 0,-0.2 -0.03,-0.38 -0.08,-0.54 -0.05,-0.16 -0.14,-0.31 -0.27,-0.45 -0.08,-0.09 -0.25,-0.24 -0.53,-0.45 -0.27,-0.21 -0.46,-0.39 -0.57,-0.55 -0.14,-0.2 -0.24,-0.42 -0.31,-0.68 -0.07,-0.25 -0.1,-0.53 -0.1,-0.82 0,-0.32 0.04,-0.61 0.13,-0.87 0.08,-0.26 0.21,-0.44 0.37,-0.54 0.16,-0.1 0.34,-0.13 0.54,-0.08 0.22,0.06 0.41,0.18 0.58,0.38 0.17,0.2 0.3,0.45 0.38,0.77 0.09,0.32 0.14,0.67 0.14,1.04l-0.37 -0.04c-0.02,-0.41 -0.09,-0.73 -0.2,-0.97 -0.12,-0.24 -0.29,-0.38 -0.51,-0.44 -0.24,-0.06 -0.41,-0.01 -0.52,0.14 -0.11,0.16 -0.16,0.37 -0.16,0.63 0,0.23 0.04,0.43 0.11,0.6 0.08,0.17 0.27,0.37 0.59,0.61 0.32,0.24 0.53,0.43 0.65,0.58 0.17,0.22 0.3,0.46 0.38,0.75 0.08,0.28 0.12,0.59 0.12,0.94 0,0.34 -0.04,0.65 -0.13,0.92 -0.09,0.28 -0.22,0.48 -0.39,0.6 -0.17,0.12 -0.36,0.16 -0.57,0.1 -0.27,-0.07 -0.49,-0.21 -0.67,-0.43 -0.18,-0.22 -0.32,-0.5 -0.42,-0.87 -0.1,-0.36 -0.16,-0.76 -0.16,-1.19zm-2.45 0.65l0.63 0.17c0.19,0.05 0.35,0.05 0.46,0 0.11,-0.05 0.2,-0.14 0.26,-0.26 0.09,-0.18 0.16,-0.43 0.22,-0.75 0.05,-0.32 0.08,-0.73 0.08,-1.21 0,-0.67 -0.05,-1.19 -0.15,-1.58 -0.1,-0.39 -0.22,-0.66 -0.37,-0.82 -0.1,-0.11 -0.27,-0.2 -0.5,-0.26l-0.62 -0.16 0 4.88zm-0.39 0.64l0 -6.38 1.02 0.27c0.23,0.06 0.4,0.14 0.52,0.23 0.17,0.13 0.31,0.32 0.43,0.57 0.16,0.33 0.27,0.72 0.35,1.18 0.08,0.46 0.12,0.98 0.12,1.55 0,0.48 -0.03,0.91 -0.08,1.27 -0.05,0.36 -0.12,0.65 -0.2,0.88 -0.08,0.22 -0.17,0.39 -0.27,0.51 -0.1,0.12 -0.21,0.19 -0.35,0.23 -0.14,0.04 -0.3,0.03 -0.47,-0.02l-1.06 -0.28zm-2.22 -3.2l1 0.27 -0.31 -1.85c-0.09,-0.56 -0.16,-1.02 -0.21,-1.39 -0.04,0.4 -0.09,0.8 -0.16,1.18l-0.32 1.79zm-0.85 2.39l1.13 -6.08 0.43 0.11 1.2 6.69 -0.44 -0.12 -0.34 -2.02 -1.24 -0.33 -0.32 1.85 -0.41 -0.11zm-7.08 -17.2l19.02 5.02 0 56.8 -19.02 -5.02 0 -56.8zm0.44 1.06l18.15 4.79 0 54.91 -18.15 -4.79 0 -54.91zm0.74 53.84l16.71 4.22 0 -51.75 -16.67 -4.5 -0.04 52.03zm5.03 -41.15l0.04 7.58 10.33 2.73 0.04 -14.37 -10.41 -2.75 0 6.81zm-3.76 23.32l7.53 1.99 0 -14 -7.53 -1.89 0 13.91zm6.65 14.15l0.04 -9.64 7.48 1.98 0 12.68 -7.53 -1.99 0 -3.03zm1.91 -24.61l4.78 1.26c0.2,0.05 0.37,0.46 0.37,0.89l0 0c0,0.44 -0.17,0.75 -0.37,0.7l-4.78 -1.26c-0.2,-0.05 -0.37,-0.46 -0.37,-0.89l0 0c0,-0.44 0.17,-0.75 0.37,-0.7zm0 4.61l4.78 1.26c0.2,0.05 0.37,0.46 0.37,0.89l0 0c0,0.44 -0.17,0.75 -0.37,0.7l-4.78 -1.26c-0.2,-0.05 -0.37,-0.46 -0.37,-0.89l0 0c0,-0.44 0.17,-0.75 0.37,-0.7zm0 4.61l4.78 1.26c0.2,0.05 0.37,0.46 0.37,0.89l0 0c0,0.44 -0.17,0.75 -0.37,0.7l-4.78 -1.26c-0.2,-0.05 -0.37,-0.46 -0.37,-0.89l0 -0c0,-0.44 0.17,-0.75 0.37,-0.7zm-8.14 4.07l4.78 1.26c0.2,0.05 0.37,0.46 0.37,0.89l0 0c0,0.44 -0.17,0.75 -0.37,0.7l-4.78 -1.26c-0.2,-0.05 -0.37,-0.46 -0.37,-0.89l0 -0c0,-0.44 0.17,-0.75 0.37,-0.7zm0 4.61l4.78 1.26c0.2,0.05 0.37,0.45 0.37,0.89l0 0c0,0.44 -0.17,0.75 -0.37,0.7l-4.78 -1.26c-0.2,-0.05 -0.37,-0.46 -0.37,-0.89l0 -0c0,-0.44 0.17,-0.75 0.37,-0.7zm0 4.61l4.78 1.26c0.2,0.05 0.37,0.46 0.37,0.89l0 0c0,0.44 -0.17,0.75 -0.37,0.7l-4.78 -1.26c-0.2,-0.05 -0.37,-0.46 -0.37,-0.89l0 -0c0,-0.44 0.17,-0.75 0.37,-0.7zm0 -41.35l2.59 0.68c0.2,0.05 0.37,0.45 0.37,0.89l0 0c0,0.44 -0.17,0.75 -0.37,0.7l-2.59 -0.68c-0.2,-0.05 -0.37,-0.46 -0.37,-0.89l0 -0c0,-0.44 0.17,-0.75 0.37,-0.7zm0 4.61l2.59 0.68c0.2,0.05 0.37,0.46 0.37,0.89l0 0c0,0.44 -0.17,0.75 -0.37,0.7l-2.59 -0.68c-0.2,-0.05 -0.37,-0.46 -0.37,-0.89l0 -0c0,-0.44 0.17,-0.75 0.37,-0.7zm0 4.61l2.59 0.68c0.2,0.05 0.37,0.45 0.37,0.89l0 0c0,0.44 -0.17,0.75 -0.37,0.7l-2.59 -0.68c-0.2,-0.05 -0.37,-0.46 -0.37,-0.89l0 0c0,-0.44 0.17,-0.75 0.37,-0.7z"/>
    </g>
   </g>
  </g>
 </g>
</svg>
