<svg width="20" height="20" viewBox="0 0 20 20" fill="none" xmlns="http://www.w3.org/2000/svg">
<path fill-rule="evenodd" clip-rule="evenodd" d="M0.205762 3.3302L0.0448503 3.84606C0.0069886 4.6033 -0.116062 5.8764 0.32408 6.43012C0.286218 7.70322 1.28009 9.6105 1.87641 10.5239C3.26783 12.7909 5.09938 14.7786 7.20544 16.4114C8.23717 17.2065 9.35409 17.8833 10.7029 18.4796C16.2686 20.9075 19.8512 18.0821 19.4537 15.0579C19.3732 14.3432 18.5403 14.1444 17.783 13.9457C17.1063 13.7848 15.9941 13.6286 15.2794 13.6286C14.2856 13.5907 13.6467 13.6664 13.3722 14.3858L12.8942 15.7772C9.7611 15.3607 3.83575 8.28061 3.67011 6.47272C4.70184 6.15563 5.50166 6.27394 5.7383 5.19962C5.93707 4.40452 5.77616 2.89479 5.57739 2.13756C5.41647 1.14369 5.2603 0.665684 4.78229 0.0693628C3.58965 -0.167273 2.27869 0.230275 1.63977 0.826596C1.04345 1.38506 0.167901 2.25587 0.210495 3.3302H0.205762Z" fill="#CC918F"/>
</svg>
