<svg width="20" height="17" viewBox="0 0 20 17" fill="none" xmlns="http://www.w3.org/2000/svg">
<path fill-rule="evenodd" clip-rule="evenodd" d="M0.0155279 7.82449C0.0155279 8.35129 0.590062 8.44611 1.10248 8.62523C1.54244 8.778 2.01346 8.92024 2.46894 9.06247L4.52899 9.71044C5.47101 10.0213 5.10352 10.0265 5.93685 9.52606C6.1853 9.37329 6.38716 9.24159 6.63561 9.08354L8.00207 8.20905C8.87681 7.6243 9.85507 7.05009 10.7453 6.46533C10.9731 6.31783 11.2008 6.18613 11.4182 6.03862C11.646 5.88058 11.8737 5.74888 12.1118 5.59084C12.5725 5.29056 13.0176 5.01136 13.4783 4.71635L14.8499 3.84712C15.0673 3.71542 16.4907 2.66182 16.4907 3.21496C16.4907 3.32559 16.2629 3.51524 16.1853 3.58372L14.2702 5.33271C14.1874 5.40646 14.1615 5.41173 14.0735 5.49075L13.5455 5.99121C13.4627 6.07023 13.4317 6.0755 13.3489 6.14925L9.10973 10.0265C9.04762 10.0845 9.01656 10.1266 8.95445 10.1846C8.86646 10.2689 8.84576 10.2689 8.75776 10.3426L8.0383 11.0011C7.88302 11.1223 7.81056 11.1802 7.80538 11.4436L7.49482 15.9373C7.99689 15.9373 8.18841 15.7265 8.51967 15.4315C8.85611 15.1312 8.95963 14.9469 9.39959 14.5728C9.46687 14.5149 9.51346 14.4622 9.57557 14.3937C9.69979 14.262 9.79814 14.1672 9.92754 14.0355L10.6625 13.3506L14.2598 16.0163C14.4306 16.148 14.5963 16.2639 14.7774 16.4008L15.2743 16.7696C15.4348 16.8697 15.6988 16.9698 15.9524 16.9961C16.4648 17.0488 16.765 16.5536 16.8892 16.1532L17.5155 13.1715C18.1625 10.2162 18.7526 7.18179 19.3996 4.23169C19.4669 3.91561 20 1.47124 20 1.18677C20 0.602016 19.881 0.064677 19.1718 0.00146063C18.8768 -0.0248795 18.1056 0.312274 17.8157 0.428171C17.381 0.602016 16.9617 0.754789 16.5166 0.933902C16.0714 1.10775 15.6677 1.27106 15.2226 1.4449C13.6232 2.06653 11.6201 2.80932 10.0466 3.45729L3.5766 5.98067C3.13147 6.16506 2.72257 6.30202 2.27743 6.48641C1.67184 6.734 0 7.20813 0 7.82975L0.0155279 7.82449Z" fill="#CC918F"/>
</svg>
