<?xml version="1.0" encoding="UTF-8"?>
<!DOCTYPE svg PUBLIC "-//W3C//DTD SVG 1.1//EN" "http://www.w3.org/Graphics/SVG/1.1/DTD/svg11.dtd">
<!-- Creator: CorelDRAW 2018 (64-Bit) -->
<svg xmlns="http://www.w3.org/2000/svg" xml:space="preserve" width="47.498mm" height="36.8085mm" version="1.1" style="shape-rendering:geometricPrecision; text-rendering:geometricPrecision; image-rendering:optimizeQuality; fill-rule:evenodd; clip-rule:evenodd"
viewBox="0 0 217.43 168.5"
 xmlns:xlink="http://www.w3.org/1999/xlink">
 <defs>
  <style type="text/css">
   <![CDATA[
    .fil0 {fill:#CC918F}
   ]]>
  </style>
 </defs>
 <g id="Layer_x0020_1">
  <metadata id="CorelCorpID_0Corel-Layer"/>
  <path class="fil0" d="M217.07 124.97l0.36 -124.97 -217.43 0 0.36 124.97 216.71 0zm-206.56 -7.34l-0.38 -108.84 197.16 0 -0.38 108.84 -196.41 0zm3.6 -3.61l-0.35 -101.61 189.91 0 -0.35 101.61 -189.21 0zm65.13 -57.37l-4.38 -16.64 2.28 0 2.49 10.91c0.27,1.14 0.51,2.28 0.72,3.4 0.44,-1.77 0.69,-2.8 0.77,-3.07l3.14 -11.24 2.65 0 2.39 8.42c0.58,2.09 1.02,4.05 1.3,5.89 0.22,-1.05 0.5,-2.25 0.85,-3.61l2.6 -10.7 2.21 0 -4.55 16.64 -2.14 0 -3.49 -12.67c-0.29,-1.06 -0.47,-1.71 -0.54,-1.95 -0.19,0.76 -0.36,1.41 -0.51,1.95l-3.49 12.68 -2.3 0zm-21.93 0l-4.38 -16.64 2.28 0 2.49 10.91c0.27,1.14 0.51,2.28 0.72,3.4 0.44,-1.77 0.69,-2.8 0.77,-3.07l3.14 -11.24 2.65 0 2.39 8.42c0.58,2.09 1.02,4.05 1.3,5.89 0.22,-1.05 0.5,-2.25 0.85,-3.61l2.6 -10.7 2.21 0 -4.55 16.64 -2.14 0 -3.49 -12.67c-0.29,-1.06 -0.47,-1.71 -0.54,-1.95 -0.19,0.76 -0.36,1.41 -0.51,1.95l-3.49 12.68 -2.3 0zm-21.93 0l-4.38 -16.64 2.28 0 2.49 10.91c0.27,1.14 0.51,2.28 0.72,3.4 0.44,-1.77 0.69,-2.8 0.77,-3.07l3.14 -11.24 2.65 0 2.39 8.42c0.59,2.09 1.02,4.05 1.3,5.89 0.22,-1.05 0.5,-2.25 0.85,-3.61l2.6 -10.7 2.21 0 -4.55 16.64 -2.14 0 -3.49 -12.67c-0.29,-1.06 -0.47,-1.71 -0.54,-1.95 -0.19,0.76 -0.36,1.41 -0.51,1.95l-3.49 12.68 -2.3 0zm82 -24.13l20.59 50.2c5.06,-3.25 6.5,-7.22 11.92,-9.75l21.31 20.95c3.61,-2.53 6.14,-4.7 7.95,-8.31l-21.31 -22.03 9.75 -9.75 -50.2 -21.31zm-10.11 105.29l-22.04 -0.19c-0.36,29.98 -12.28,12.64 -24.56,22.03 -1.08,8.67 3.61,8.31 11.2,8.31 9.49,0 22.3,0.42 35.4,0.55 13.1,-0.13 25.91,-0.55 35.4,-0.55 7.58,0 12.28,0.36 11.2,-8.31 -12.28,-9.39 -24.2,7.95 -24.56,-22.03l-22.04 0.19zm-85.97 -116.85l85.6 0 0 54.54 -85.96 0 0.36 -54.54z"/>
 </g>
</svg>
